<svg xmlns="http://www.w3.org/2000/svg" xmlns:xlink="http://www.w3.org/1999/xlink" width="242.163" height="44.121" viewBox="0 0 242.163 44.121"><defs><style>.a{fill:none;}.b{clip-path:url(#a);}.c{clip-path:url(#b);}.d{fill:#ef5320;font-size:5px;font-family:MuseoSans-700, Museo Sans;font-weight:700;}.e{letter-spacing:-0.004em;}.f{letter-spacing:-0.028em;}.g{fill:#717c7d;font-size:1px;font-family:Helvetica;}.h{letter-spacing:-0.021em;}.i{letter-spacing:-0.011em;}.j{letter-spacing:-0.012em;}.k{letter-spacing:-0.005em;}.l{fill:#667678;}.m{fill:#fa4f16;}</style><clipPath id="a"><rect class="a" width="242.162" height="44.12"/></clipPath><clipPath id="b"><rect class="a" width="349.178" height="246.485"/></clipPath></defs><g class="b" transform="translate(0 0)"><g transform="translate(-55.525 -121.39)"><g class="c"><text class="d" transform="translate(35.271 51.48)"><tspan x="0" y="0">VERS</tspan><tspan class="e" y="0">Ã</tspan><tspan y="0">O PREFERENCIAL POSITI</tspan><tspan class="f" y="0">V</tspan><tspan y="0">A</tspan></text><text class="g" transform="translate(35.271 78.019)"><tspan class="h" x="0" y="0">L</tspan><tspan y="0">ogotipo </tspan><tspan class="i" y="0">c</tspan><tspan y="0">ombinado </tspan><tspan class="j" y="0">c</tspan><tspan y="0">om símbo</tspan><tspan class="k" y="0">l</tspan><tspan y="0">o</tspan></text><g class="c"><path class="l" d="M-78.974,1927.621h-3.64a3.489,3.489,0,0,0-3.42,2.186l-5.938,12.813a4.137,4.137,0,0,1-3.968,2.513,4.076,4.076,0,0,1-3.941-2.513l-5.938-12.813a3.489,3.489,0,0,0-3.42-2.186H-113.1c-2.216,0-3.092,1.421-2.134,3.415l6.677,13.714c2.08,4.317,4.817,6.994,8.237,8V1963.9a2.623,2.623,0,0,0,2.9,2.9h2.928a2.623,2.623,0,0,0,2.9-2.9v-11.146c3.311-1.065,6.02-3.743,8.073-8l6.677-13.714c.958-1.994.082-3.415-2.134-3.415" transform="translate(250.548 -1803.832)"/><path class="l" d="M112.083,1954.667l.547-.246c5.774-2.295,8.866-6.693,8.866-12.7,0-4.4-1.477-7.84-4.406-10.354-2.956-2.486-7.306-3.743-13.026-3.743h-14.8a2.643,2.643,0,0,0-2.9,2.924V1963.9a2.623,2.623,0,0,0,2.9,2.9h2.928a2.622,2.622,0,0,0,2.9-2.9v-28.713h8.4c6.431,0,9.03,2.076,9.03,6.529,0,4.4-2.6,6.5-9.03,6.5h-.6c-1.559,0-2.353.71-2.353,2.131v.956a5.768,5.768,0,0,0,1.4,3.8l7.963,9.972a4.43,4.43,0,0,0,3.53,1.721H117.5c2.462,0,3.257-1.639,1.7-3.579Z" transform="translate(132.342 -1803.832)"/><path class="l" d="M-179.054,1934.689c-1.122-3.251-2.791-5.518-4.843-6.721a12.3,12.3,0,0,0-6.65-1.666,11.856,11.856,0,0,0-6.54,1.666c-2,1.2-3.639,3.443-4.761,6.721l-9.824,27.976c-.739,2.076.191,3.36,2.353,3.36h3.366a3.132,3.132,0,0,0,3.311-2.4l8.785-26.637a3.208,3.208,0,0,1,3.311-2.459,3.208,3.208,0,0,1,3.311,2.459l4.05,12.267h-8.052a2.224,2.224,0,0,0-2.137,1.605l-.894,3.1a2.221,2.221,0,0,0,2.137,2.835h11.463l2.244,6.83a3.121,3.121,0,0,0,3.284,2.4h3.557c2.162,0,3.092-1.284,2.353-3.36Z" transform="translate(306.911 -1803.059)"/><path class="l" d="M-268.832,1931.365q-4.433-3.729-13.026-3.743h-15.817a2.9,2.9,0,0,0-2.9,2.9V1963.9a2.9,2.9,0,0,0,2.9,2.9h2.928a2.9,2.9,0,0,0,2.9-2.9V1935.19h9.414c6.431,0,9.031,2.076,9.031,6.529s-2.6,6.557-9.031,6.557h-1.744a2.222,2.222,0,0,0-2.224,2.22v3.127a2.222,2.222,0,0,0,2.224,2.22h2.318c5.719,0,10.043-1.257,13-3.77s4.433-5.956,4.433-10.354-1.478-7.841-4.406-10.354" transform="translate(358.794 -1803.833)"/><path class="l" d="M22.381,1927.621H-4.181a2.883,2.883,0,0,0-2.885,2.88v24.549q0,11.761,11.986,11.747H22.381a2.222,2.222,0,0,0,2.224-2.22v-3.1a2.222,2.222,0,0,0-2.224-2.22H7.219c-3.694,0-5.555-1.694-5.555-5.054v-19.015H22.381a2.222,2.222,0,0,0,2.224-2.22v-3.126a2.223,2.223,0,0,0-2.224-2.221" transform="translate(187.019 -1803.832)"/><path class="l" d="M36.826,1972.733a2.222,2.222,0,0,0,2.224-2.221v-3.127a2.222,2.222,0,0,0-2.224-2.221H25.071v5.345a2.224,2.224,0,0,0,2.226,2.222Z" transform="translate(168.211 -1825.83)"/><path class="m" d="M220.986,1943.331l-26.21-15.107a4.448,4.448,0,0,0-6.672,3.846v30.215a4.448,4.448,0,0,0,6.672,3.846l26.21-15.107a4.437,4.437,0,0,0,0-7.692" transform="translate(72.797 -1803.833)"/></g></g></g></g></svg>